<svg width="26" height="26" viewBox="0 0 26 26" fill="none" xmlns="http://www.w3.org/2000/svg">
<g id="Group 5970">
<path id="Vector" d="M23.8132 1L14.4375 8.5L16.181 4.08001L23.8132 1Z" fill="#E17726" stroke="#E17726" stroke-width="0.25" stroke-linecap="round" stroke-linejoin="round"/>
<path id="Vector_2" d="M2.1875 1L11.4797 8.56999L9.81976 4.08L2.1875 1Z" fill="#E27625" stroke="#E27625" stroke-width="0.25" stroke-linecap="round" stroke-linejoin="round"/>
<path id="Vector_3" d="M20.436 18.3896L17.9414 22.5097L23.283 24.0997L24.8132 18.4797L20.436 18.3896Z" fill="#E27625" stroke="#E27625" stroke-width="0.25" stroke-linecap="round" stroke-linejoin="round"/>
<path id="Vector_4" d="M1.19531 18.4797L2.71619 24.0997L8.04858 22.5097L5.56321 18.3896L1.19531 18.4797Z" fill="#E27625" stroke="#E27625" stroke-width="0.25" stroke-linecap="round" stroke-linejoin="round"/>
<path id="Vector_5" d="M7.76111 11.4299L6.27734 13.85L11.5633 14.11L11.3872 7.95996L7.76111 11.4299Z" fill="#E27625" stroke="#E27625" stroke-width="0.25" stroke-linecap="round" stroke-linejoin="round"/>
<path id="Vector_6" d="M18.2397 11.4296L14.5581 7.88965L14.4375 14.1097L19.7235 13.8497L18.2397 11.4296Z" fill="#E27625" stroke="#E27625" stroke-width="0.25" stroke-linecap="round" stroke-linejoin="round"/>
<path id="Vector_7" d="M8.04688 22.5095L11.2463 20.8395L8.49203 18.5195L8.04688 22.5095Z" fill="#E27625" stroke="#E27625" stroke-width="0.25" stroke-linecap="round" stroke-linejoin="round"/>
<path id="Vector_8" d="M14.7539 20.8395L17.944 22.5095L17.5081 18.5195L14.7539 20.8395Z" fill="#E27625" stroke="#E27625" stroke-width="0.25" stroke-linecap="round" stroke-linejoin="round"/>
<path id="Vector_9" d="M17.944 22.5098L14.7539 20.8398L15.0135 23.0798L14.9857 24.0298L17.944 22.5098Z" fill="#D5BFB2" stroke="#D5BFB2" stroke-width="0.25" stroke-linecap="round" stroke-linejoin="round"/>
<path id="Vector_10" d="M8.04688 22.5098L11.0145 24.0298L10.9959 23.0798L11.2463 20.8398L8.04688 22.5098Z" fill="#D5BFB2" stroke="#D5BFB2" stroke-width="0.25" stroke-linecap="round" stroke-linejoin="round"/>
<path id="Vector_11" d="M11.0703 17.0405L8.41797 16.2005L10.2912 15.2705L11.0703 17.0405Z" fill="#233447" stroke="#233447" stroke-width="0.25" stroke-linecap="round" stroke-linejoin="round"/>
<path id="Vector_12" d="M14.9297 17.0405L15.7087 15.2705L17.5913 16.2005L14.9297 17.0405Z" fill="#233447" stroke="#233447" stroke-width="0.25" stroke-linecap="round" stroke-linejoin="round"/>
<path id="Vector_13" d="M8.04782 22.5097L8.51154 18.3896L5.5625 18.4797L8.04782 22.5097Z" fill="#CC6228" stroke="#CC6228" stroke-width="0.25" stroke-linecap="round" stroke-linejoin="round"/>
<path id="Vector_14" d="M17.4883 18.3896L17.9427 22.5097L20.4373 18.4797L17.4883 18.3896Z" fill="#CC6228" stroke="#CC6228" stroke-width="0.25" stroke-linecap="round" stroke-linejoin="round"/>
<path id="Vector_15" d="M19.7235 13.8496L14.4375 14.1096L14.929 17.0397L15.708 15.2696L17.5906 16.1996L19.7235 13.8496Z" fill="#CC6228" stroke="#CC6228" stroke-width="0.25" stroke-linecap="round" stroke-linejoin="round"/>
<path id="Vector_16" d="M8.41956 16.1996L10.2928 15.2696L11.0719 17.0397L11.5633 14.1096L6.27734 13.8496L8.41956 16.1996Z" fill="#CC6228" stroke="#CC6228" stroke-width="0.25" stroke-linecap="round" stroke-linejoin="round"/>
<path id="Vector_17" d="M6.27734 13.8496L8.49377 18.5196L8.41953 16.1996L6.27734 13.8496Z" fill="#E27525" stroke="#E27525" stroke-width="0.25" stroke-linecap="round" stroke-linejoin="round"/>
<path id="Vector_18" d="M17.5913 16.1996L17.5078 18.5196L19.7242 13.8496L17.5913 16.1996Z" fill="#E27525" stroke="#E27525" stroke-width="0.25" stroke-linecap="round" stroke-linejoin="round"/>
<path id="Vector_19" d="M11.5619 14.1104L11.0703 17.0404L11.6916 20.5004L11.8308 15.9404L11.5619 14.1104Z" fill="#E27525" stroke="#E27525" stroke-width="0.25" stroke-linecap="round" stroke-linejoin="round"/>
<path id="Vector_20" d="M14.4394 14.1104L14.1797 15.9304L14.3095 20.5004L14.9309 17.0404L14.4394 14.1104Z" fill="#E27525" stroke="#E27525" stroke-width="0.25" stroke-linecap="round" stroke-linejoin="round"/>
<path id="Vector_21" d="M14.9299 17.0402L14.3086 20.5002L14.7537 20.8402L17.508 18.5202L17.5915 16.2002L14.9299 17.0402Z" fill="#F5841F" stroke="#F5841F" stroke-width="0.25" stroke-linecap="round" stroke-linejoin="round"/>
<path id="Vector_22" d="M8.41797 16.2002L8.49221 18.5202L11.2464 20.8402L11.6916 20.5002L11.0703 17.0402L8.41797 16.2002Z" fill="#F5841F" stroke="#F5841F" stroke-width="0.25" stroke-linecap="round" stroke-linejoin="round"/>
<path id="Vector_23" d="M14.9836 24.0298L15.0114 23.0798L14.7703 22.8597H11.2278L10.9959 23.0798L11.0145 24.0298L8.04688 22.5098L9.08552 23.4298L11.1907 24.9998H14.7981L16.9125 23.4298L17.9418 22.5098L14.9836 24.0298Z" fill="#C0AC9D" stroke="#C0AC9D" stroke-width="0.25" stroke-linecap="round" stroke-linejoin="round"/>
<path id="Vector_24" d="M14.7519 20.84L14.3068 20.5H11.6916L11.2465 20.84L10.9961 23.08L11.228 22.86H14.7705L15.0116 23.08L14.7519 20.84Z" fill="#161616" stroke="#161616" stroke-width="0.25" stroke-linecap="round" stroke-linejoin="round"/>
<path id="Vector_25" d="M24.213 8.98997L25.0013 4.85L23.8142 1L14.7539 8.25003L18.2408 11.43L23.1651 12.98L24.2501 11.61L23.7772 11.24L24.5283 10.5L23.9534 10.02L24.7046 9.4L24.213 8.98997Z" fill="#763E1A" stroke="#763E1A" stroke-width="0.25" stroke-linecap="round" stroke-linejoin="round"/>
<path id="Vector_26" d="M1 4.85L1.79754 8.98997L1.28749 9.4L2.04792 10.02L1.47296 10.5L2.22412 11.24L1.75117 11.61L2.83619 12.98L7.76054 11.43L11.2474 8.25003L2.18703 1L1 4.85Z" fill="#763E1A" stroke="#763E1A" stroke-width="0.25" stroke-linecap="round" stroke-linejoin="round"/>
<path id="Vector_27" d="M23.1648 12.9796L18.2404 11.4297L19.7242 13.8497L17.5078 18.5197L20.4383 18.4797H24.8154L23.1648 12.9796Z" fill="#F5841F" stroke="#F5841F" stroke-width="0.25" stroke-linecap="round" stroke-linejoin="round"/>
<path id="Vector_28" d="M7.76104 11.4297L2.83675 12.9796L1.19531 18.4797H5.56321L8.49366 18.5197L6.27728 13.8497L7.76104 11.4297Z" fill="#F5841F" stroke="#F5841F" stroke-width="0.25" stroke-linecap="round" stroke-linejoin="round"/>
<path id="Vector_29" d="M14.4386 14.1101L14.7539 8.25004L16.182 4.08008H9.82031L11.2484 8.25004L11.5637 14.1101L11.6843 15.9501L11.6936 20.5001H14.3088L14.318 15.9501L14.4386 14.1101Z" fill="#F5841F" stroke="#F5841F" stroke-width="0.25" stroke-linecap="round" stroke-linejoin="round"/>
</g>
</svg>
